<svg id="visual" viewBox="0 0 960 300" width="960" height="300" xmlns="http://www.w3.org/2000/svg" xmlns:xlink="http://www.w3.org/1999/xlink" version="1.1"><rect x="0" y="0" width="960" height="300" fill="#f8f9fa"></rect><path d="M0 155L22.8 149.2C45.7 143.3 91.3 131.7 137 126.2C182.7 120.7 228.3 121.3 274 129.2C319.7 137 365.3 152 411.2 160.5C457 169 503 171 548.8 167.2C594.7 163.3 640.3 153.7 686 146.7C731.7 139.7 777.3 135.3 823 138.3C868.7 141.3 914.3 151.7 937.2 156.8L960 162L960 0L937.2 0C914.3 0 868.7 0 823 0C777.3 0 731.7 0 686 0C640.3 0 594.7 0 548.8 0C503 0 457 0 411.2 0C365.3 0 319.7 0 274 0C228.3 0 182.7 0 137 0C91.3 0 45.7 0 22.8 0L0 0Z" fill="#8e53e1"></path><path d="M0 99L22.8 96.5C45.7 94 91.3 89 137 93.3C182.7 97.7 228.3 111.3 274 116.8C319.7 122.3 365.3 119.7 411.2 115C457 110.3 503 103.7 548.8 98.8C594.7 94 640.3 91 686 91.3C731.7 91.7 777.3 95.3 823 99C868.7 102.7 914.3 106.3 937.2 108.2L960 110L960 0L937.2 0C914.3 0 868.7 0 823 0C777.3 0 731.7 0 686 0C640.3 0 594.7 0 548.8 0C503 0 457 0 411.2 0C365.3 0 319.7 0 274 0C228.3 0 182.7 0 137 0C91.3 0 45.7 0 22.8 0L0 0Z" fill="#9c66e7"></path><path d="M0 75L22.8 73.2C45.7 71.3 91.3 67.7 137 73.7C182.7 79.7 228.3 95.3 274 97.7C319.7 100 365.3 89 411.2 83.3C457 77.7 503 77.3 548.8 77.2C594.7 77 640.3 77 686 77.5C731.7 78 777.3 79 823 80.2C868.7 81.3 914.3 82.7 937.2 83.3L960 84L960 0L937.2 0C914.3 0 868.7 0 823 0C777.3 0 731.7 0 686 0C640.3 0 594.7 0 548.8 0C503 0 457 0 411.2 0C365.3 0 319.7 0 274 0C228.3 0 182.7 0 137 0C91.3 0 45.7 0 22.8 0L0 0Z" fill="#a979ec"></path><path d="M0 57L22.8 57.3C45.7 57.7 91.3 58.3 137 62.2C182.7 66 228.3 73 274 75.3C319.7 77.7 365.3 75.3 411.2 74.5C457 73.7 503 74.3 548.8 71.2C594.7 68 640.3 61 686 55.7C731.7 50.3 777.3 46.7 823 50.5C868.7 54.3 914.3 65.7 937.2 71.3L960 77L960 0L937.2 0C914.3 0 868.7 0 823 0C777.3 0 731.7 0 686 0C640.3 0 594.7 0 548.8 0C503 0 457 0 411.2 0C365.3 0 319.7 0 274 0C228.3 0 182.7 0 137 0C91.3 0 45.7 0 22.8 0L0 0Z" fill="#b68cf2"></path><path d="M0 41L22.8 37.3C45.7 33.7 91.3 26.3 137 27.3C182.7 28.3 228.3 37.7 274 41.2C319.7 44.7 365.3 42.3 411.2 37.5C457 32.7 503 25.3 548.8 26.5C594.7 27.7 640.3 37.3 686 40.2C731.7 43 777.3 39 823 35.2C868.7 31.3 914.3 27.7 937.2 25.8L960 24L960 0L937.2 0C914.3 0 868.7 0 823 0C777.3 0 731.7 0 686 0C640.3 0 594.7 0 548.8 0C503 0 457 0 411.2 0C365.3 0 319.7 0 274 0C228.3 0 182.7 0 137 0C91.3 0 45.7 0 22.8 0L0 0Z" fill="#c39ef7"></path></svg>